<?xml version="1.0" encoding="UTF-8"?>
<svg width="22px" height="22px" viewBox="0 0 22 22" version="1.1" xmlns="http://www.w3.org/2000/svg" xmlns:xlink="http://www.w3.org/1999/xlink">
    <!-- Generator: Sketch 48.2 (47327) - http://www.bohemiancoding.com/sketch -->
    <title>手机灰</title>
    <desc>Created with Sketch.</desc>
    <defs></defs>
    <g id="Symbols" stroke="none" stroke-width="1" fill="none" fill-rule="evenodd">
        <g id="手机灰" fill="#D0D7E6">
            <path d="M15,0 L7,0 C5.34,0 4,1.34 4,3 L4,19 C4,20.66 5.34,22 7,22 L15,22 C16.66,22 18,20.66 18,19 L18,3 C18,1.34 16.66,0 15,0 L15,0 Z M13,20 L9,20 L9,19 L13,19 L13,20 L13,20 Z M16.25,17 L5.75,17 L5.75,3 L16.25,3 L16.25,17 L16.25,17 Z" id="Shape"></path>
        </g>
    </g>
</svg>