<?xml version="1.0" encoding="UTF-8"?>
<svg width="22px" height="22px" viewBox="0 0 22 22" version="1.1" xmlns="http://www.w3.org/2000/svg" xmlns:xlink="http://www.w3.org/1999/xlink">
    <!-- Generator: Sketch 48.2 (47327) - http://www.bohemiancoding.com/sketch -->
    <title>密码灰</title>
    <desc>Created with Sketch.</desc>
    <defs></defs>
    <g id="Symbols" stroke="none" stroke-width="1" fill="none" fill-rule="evenodd">
        <g id="密码灰" fill="#D0D7E6">
            <path d="M17,8 L16,8 L16,6 C16,3.24 13.76,1 11,1 C8.24,1 6,3.24 6,6 L6,8 L5,8 C3.9,8 3,8.9 3,10 L3,20 C3,21.1 3.9,22 5,22 L17,22 C18.1,22 19,21.1 19,20 L19,10 C19,8.9 18.1,8 17,8 L17,8 Z M11,17 C9.9,17 9,16.1 9,15 C9,13.9 9.9,13 11,13 C12.1,13 13,13.9 13,15 C13,16.1 12.1,17 11,17 L11,17 Z M14.1,8 L7.9,8 L7.9,6 C7.9,4.29 9.29,2.9 11,2.9 C12.71,2.9 14.1,4.29 14.1,6 L14.1,8 L14.1,8 Z" id="Shape"></path>
        </g>
    </g>
</svg>